<?xml version="1.0" standalone="no"?>
<!DOCTYPE svg PUBLIC "-//W3C//DTD SVG 1.1//EN" "http://www.w3.org/Graphics/SVG/1.1/DTD/svg11.dtd" >
<svg xmlns="http://www.w3.org/2000/svg">
<metadata></metadata>
<defs>
<font id="socialicoregular" horiz-adv-x="1630" >
<font-face units-per-em="2048" ascent="1536" descent="-512" />
<missing-glyph horiz-adv-x="500" />
<glyph horiz-adv-x="2048" />
<glyph horiz-adv-x="2048" />
<glyph unicode="&#xd;" horiz-adv-x="2048" />
<glyph unicode=" " d="M96 729q0 297 211 508t510 211t508 -211q211 -209 211 -508t-211 -510q-209 -211 -508 -211t-510 211t-211 510z" />
<glyph unicode="!" d="M96 719q0 299 211 510q213 211 510 211t508 -211t211 -510q0 -297 -211 -508q-209 -211 -508 -211t-510 211t-211 508zM303 616q0 -49 41 -86v172q-41 -35 -41 -86zM387 508q20 -4 33 -4h10v225q-4 2 -10 2q-12 0 -33 -4v-219zM473 504h43v284q-27 -37 -35 -75l-8 4v-213 zM559 504h43v346q-20 -6 -43 -21v-325zM645 504h43v354l-26 2q-10 0 -17 -2v-354zM711 504h63v356l-18 -26q-18 10 -45 18v-348zM797 504h407v2q125 6 125 123q0 51 -35 86q-35 37 -86 37q-23 0 -49 -11q-10 82 -72 138q-61 55 -147 55t-143 -53v-377z" />
<glyph unicode="$" horiz-adv-x="1628" d="M96 717q0 299 211 508q211 211 508 211q299 0 508 -211q211 -209 211 -508t-211 -510q-209 -211 -508 -211t-508 211q-211 211 -211 510zM401 553h56v170q0 41 10 68q10 23 29 34q23 12 45 13q33 0 45 -19q14 -16 14 -55v-211h57v188q0 53 23 74q27 23 59 23q23 0 33 -9 q14 -8 21 -24q6 -12 6 -47v-205h55v223q0 57 -27 82q-25 27 -75 27q-63 0 -105 -56q-10 27 -33 41t-61 15q-37 0 -59 -15q-23 -12 -43 -36v45h-50v-326zM920 713q0 -80 43 -123t116 -43q61 0 97 26q39 29 51 78l-58 6q-16 -37 -34 -49q-23 -16 -56 -16q-43 0 -69 29 q-29 29 -31 81h250v15q0 80 -43 125q-39 43 -109 43t-112 -45q-45 -43 -45 -127zM983 748q0 43 29 67q29 25 65 25q45 0 70 -31q20 -23 22 -61h-186z" />
<glyph unicode="&#x26;" horiz-adv-x="1628" d="M96 717q0 299 211 508q211 211 508 211q299 0 508 -211q211 -209 211 -508t-211 -510q-209 -211 -508 -211t-508 211q-211 211 -211 510zM512 807q0 -131 104 -174q31 31 15 69q-31 68 -31 76q-12 123 98 201q115 80 234 8q88 -51 74 -209q-16 -158 -117 -178 q-51 -8 -76 16q-35 33 -4 121q37 98 18 142q-23 55 -77 28q-53 -27 -62 -82q-4 -20 4 -53q8 -39 8 -51q0 -43 -24 -127q-31 -102 -35 -129q-14 -74 -2 -123h49q37 63 76 227q-2 0 24 -20q45 -35 121 -23q68 10 111 47q116 96 96 289q-10 84 -78 150q-70 66 -161 75 q-145 16 -252 -63q-111 -82 -113 -217z" />
<glyph unicode="(" horiz-adv-x="1628" d="M96 721q0 299 211 510t508 211t508 -211t211 -510q0 -297 -211 -508q-209 -211 -508 -211q-297 0 -508 211t-211 508zM465 721q0 -143 102 -248q104 -102 248 -102q145 0 248 102q102 104 102 248q0 145 -102 248q-102 102 -248 102t-248 -102t-102 -248zM535 721 q0 117 81 199q82 82 199 81q115 0 199 -81q82 -82 82 -199q0 -115 -82 -197q-84 -82 -199 -82q-117 0 -199 82t-81 197zM676 686l139 -139l139 139h-69v211h-140v-211h-69z" />
<glyph unicode=")" d="M96 719q0 299 211 508q211 211 508 211q299 0 510 -211t211 -508t-211 -508t-510 -211q-297 0 -508 211t-211 508zM346 764h154v-287q0 -35 35 -35h350l-109 111h-166v211h154l-209 229zM748 995l108 -110h166v-211h-156l211 -230l209 230h-153v287q0 35 -35 34h-350z " />
<glyph unicode="," d="M96 713q0 299 211 510t508 211q299 0 510 -211t211 -510q0 -297 -211 -508t-510 -211q-297 0 -508 211t-211 508zM463 813q-12 -28 2 -51q10 -25 43 -31l12 -2l166 21q2 16 19 34l-103 74l-31 12q-33 8 -63 -10q-31 -10 -45 -47zM506 594l2 -12q8 -14 37 -19q29 -2 61 12 l43 35q8 6 21 21q14 14 22 20l-10 31l-92 -16l-35 -15q-37 -16 -47 -47zM618 432q0 -23 11 -39q12 -29 49 -39q29 -8 63 8q31 14 43 48v57q-6 43 -10 125q-12 2 -37 14l-96 -114q-8 -8 -18 -33zM635 1006q-4 -27 12 -62l6 -12l103 -111l16 6l-22 136q-2 12 -15 36 q-20 39 -51 50q-18 6 -27 -2q-23 -12 -22 -41zM723 707q0 -33 25 -56q18 -23 53 -22q31 0 53 22q23 20 23 56q0 31 -23 53q-20 20 -53 20t-53 -20q-25 -25 -25 -53zM827 592l17 -98l14 -39q18 -41 51 -52q18 0 27 7q16 4 25 41q1 28 -15 59l-6 12l-31 37l-47 49zM829 997 l13 -176q16 -8 35 -20l102 127q10 18 16 35l4 24q0 16 -8 41q-16 31 -53 37q-33 12 -66 -4q-35 -20 -41 -53zM901 647l121 -98q12 -16 33 -19q33 -12 63 5q31 14 39 51l4 22q0 31 -18 49q-10 20 -41 33l-12 2l-177 -12zM905 762l4 -12l142 16q14 2 39 10q43 20 53 51l2 11 l-4 14q-10 23 -39 27q-35 4 -62 -11l-14 -4z" />
<glyph unicode="-" d="M96 719q0 299 211 508q211 211 508 211q299 0 510 -211t211 -508q0 -299 -211 -510t-510 -211t-508 211q-211 211 -211 510zM502 825q-10 -20 14 -49l121 -145l-62 -176q-10 -35 5 -49q14 -12 47 4l188 94l189 -94q33 -16 49 -4q14 14 2 49l-60 176l121 145q23 29 14 49 q-10 18 -47 19h-155l-76 157q-14 35 -37 35q-20 0 -37 -35l-73 -157h-158q-37 0 -45 -19z" />
<glyph unicode="." d="M96 717q0 299 211 510t508 211q299 0 510 -211t211 -510q0 -297 -211 -508t-510 -211q-297 0 -508 211t-211 508zM485 717q0 -135 99 -232q96 -96 231 -96q137 0 234 96q96 96 96 232q0 137 -96 233t-234 97q-135 -1 -231 -97q-98 -96 -99 -233zM553 717q0 109 76 186 q78 78 186 78q109 0 186 -78q78 -78 78 -186q0 -109 -78 -187q-78 -76 -186 -75q-108 -1 -186 75q-76 78 -76 187zM674 598q4 -53 53 -45q51 8 47 57v174l133 25v-139q-8 4 -24 4q-51 -8 -47 -58q4 -49 53 -45q51 8 47 58v254l-191 -33v-199q-8 4 -24 4q-51 -8 -47 -57z" />
<glyph unicode="/" d="M96 717q0 299 211 508q211 211 508 211q299 0 510 -211t211 -508q0 -299 -211 -510t-510 -211t-508 211q-211 211 -211 510zM434 721q0 -63 45 -109q43 -45 107 -45q25 0 51 11l147 -136l414 334v209l-2 4l-405 -430l-64 107q10 27 10 55q0 63 -45 106q-43 45 -106 45 t-107 -45q-45 -43 -45 -106z" />
<glyph unicode="0" d="M96 725q0 299 211 508q211 211 508 211q299 0 510 -211t211 -508t-211 -510q-211 -211 -510 -211q-297 0 -508 211t-211 510zM455 502q66 25 116 24q59 0 134 -43q43 141 65 226q-4 4 -12 8l-13 8q-51 25 -98 25h-12q-43 -2 -98 -21q-6 -4 -19 -8zM541 799q66 27 121 26 q63 0 126 -43l66 224q-51 29 -76 34q-25 6 -55 7q-51 0 -121 -29zM764 449q68 -45 131 -46q63 0 133 31l62 211q-61 -18 -119 -18q-88 0 -144 43zM848 741q66 -43 139 -43q59 0 123 29v2h4l62 217q-61 -25 -121 -24q-76 0 -142 43z" />
<glyph unicode="1" d="M96 725q0 299 211 508q211 211 510 211t508 -211q211 -209 211 -508t-211 -510t-508 -211q-299 0 -510 211t-211 510zM477 623h238v-236h203v236h237v202h-237v238h-203v-238h-238v-202z" />
<glyph unicode="2" d="M96 717q0 297 209 506t504 213h14q297 -4 504 -213q209 -209 209 -506t-211 -508q-209 -211 -508 -211t-510 211t-211 508zM453 733q0 -51 36 -86q35 -37 86 -37q45 0 80 29l248 -125v-6q0 -51 37 -86q35 -37 86 -37t86 37q37 35 37 86t-37 86q-35 37 -86 37 q-41 0 -80 -29l-248 123v14l248 125q35 -29 80 -28q51 0 86 34q37 37 37 88t-37 86q-35 35 -86 35t-86 -35q-37 -35 -37 -86v-8l-248 -125q-37 31 -80 31q-51 0 -86 -37q-37 -35 -36 -86z" />
<glyph unicode="3" horiz-adv-x="1628" d="M96 719q0 299 211 510t508 211t508 -211t211 -510q0 -297 -211 -508q-209 -211 -508 -211q-297 0 -508 211t-211 508zM420 909q-45 -143 139 -348q168 -190 268 -190q96 0 256 190q172 205 127 348q-49 160 -204 160q-84 0 -144 -65q-57 -68 -47 -68t-45 68 q-57 66 -143 65q-158 0 -207 -160z" />
<glyph unicode="4" horiz-adv-x="1628" d="M96 715q0 297 209 506q207 209 502 213h16q295 -4 504 -213q207 -209 207 -506t-211 -508q-209 -211 -508 -211q-297 0 -508 211t-211 508zM467 723q0 -47 12 -90q143 115 309 280q-37 25 -131 119q-190 -94 -190 -309zM492 594q45 -109 145 -168v299q-86 -72 -145 -131z M672 406q57 -27 110 -29h66q195 16 280 194h-456v-165zM694 1049l264 -242v233q-68 31 -143 31q-60 1 -121 -22zM995 608h150q18 55 18 115q0 195 -168 297v-412z" />
<glyph unicode="5" d="M96 723q0 299 211 510t508 211q299 0 510 -211t211 -510t-211 -508q-211 -211 -510 -211q-297 0 -508 211t-211 508zM414 410l225 67v-92h330l-97 291h158q82 0 139 57t58 139q0 82 -58 140q-57 57 -139 57q-74 0 -129 -49q-55 -47 -65 -119h-7q-10 72 -65 119 q-55 49 -129 49q-82 0 -137 -57q-57 -57 -58 -140q0 -80 58 -137q55 -57 135 -59h6v-66l-225 60v-260zM580 872q0 55 55 56q55 0 55 -56q0 -55 -55 -55t-55 55zM979 872q0 55 55 56q55 0 56 -56q0 -55 -56 -55q-55 0 -55 55z" />
<glyph unicode="6" d="M96 717q0 299 211 510q213 211 510 211t508 -211t211 -510q0 -297 -211 -508q-209 -211 -508 -211t-510 211t-211 508zM322 717q0 -121 86 -209q86 -86 208 -86q139 0 228 108l-37 88q-61 -115 -191 -114q-88 0 -151 63q-63 61 -64 150q0 90 64 151q63 63 151 64 q145 0 197 -127l105 -240q61 -139 196 -139q86 0 141 49q57 47 58 123q0 117 -152 168q-82 27 -94 33q-37 20 -37 61q0 76 80 76q49 0 84 -47l63 33q-49 86 -143 86q-74 0 -117 -41t-43 -109q0 -109 176 -168q102 -33 103 -90q0 -43 -35 -70q-35 -29 -88 -26q-80 2 -125 102 l-96 225q-78 182 -273 183q-122 0 -208 -86q-86 -88 -86 -211z" />
<glyph unicode="7" d="M96 711q0 299 211 510q213 211 510 211t508 -211t211 -510q0 -297 -211 -508q-209 -211 -508 -211t-510 211t-211 508zM565 809q0 -92 60 -162q57 -70 145 -88l51 -203l51 203q88 18 146 88q57 72 57 162q0 104 -74 180q-76 74 -180 74q-106 0 -180 -74q-76 -76 -76 -180 zM631 809q0 78 55 135q55 55 135 55q78 0 135 -55q55 -57 56 -135q0 -80 -56 -135q-57 -55 -135 -56q-80 1 -135 56t-55 135zM715 809q0 -45 30 -76q31 -31 76 -31q43 0 74 31t31 76q0 43 -31 74t-74 30q-45 1 -76 -30t-30 -74z" />
<glyph unicode="8" d="M96 721q0 297 211 508t510 211t508 -211q211 -209 211 -508t-211 -510q-209 -211 -508 -211t-510 211t-211 510zM530 641q68 -252 285 -264q340 12 277 452q4 -31 -25 -67q-14 137 -236 301q-2 -33 -81 -107q-102 -90 -134 -137q-35 -49 -47 -125q-8 -66 -10 -65 q-12 -4 -29 12z" />
<glyph unicode="9" d="M96 719q0 297 211 508t510 211t508 -211q211 -209 211 -508t-211 -510q-209 -211 -508 -211t-510 211t-211 510zM385 682q-4 -59 35 -94q41 -39 108 -33q20 4 31 10q-8 -4 37 27q-27 -115 37 -115h47l29 185q8 37 10 61q10 125 -115 131q-104 8 -172 -59 q-45 -51 -47 -113zM496 707q6 43 30 61q10 10 31 12q29 0 39 -8q25 -18 16 -63q-6 -45 -30 -64q-33 -25 -70 -4q-26 19 -16 66zM748 647q-8 -49 2 -65q16 -20 90 -17q14 78 28 189q10 47 0 61q-10 23 -92 23l-14 -95q-10 -61 -14 -96zM782 895q6 -23 29 -29q23 -8 45 2 q49 18 35 64q-6 20 -37 26h-18q-63 -20 -54 -63zM895 618q-4 -59 96 -55l23 133l37 -63q29 -49 43 -60q31 -20 71 -8q41 12 45 45q-31 6 -96 107q10 12 68 65l65 64q-119 -6 -114 -4q-10 -4 -31 -25q-10 -8 -55 -59q-12 -16 -29 -29q2 23 12 78t12 80q2 39 -24 51 q-20 8 -74 6z" />
<glyph unicode="?" d="M96 719q0 299 211 510t508 211q299 0 510 -211t211 -510q0 -297 -211 -508t-510 -211q-297 0 -508 211t-211 508zM471 772q0 -78 68 -141q66 -63 172 -88q-27 -96 -62 -117q170 4 256 115q113 23 182 86q72 63 72 145q0 100 -100 170q-100 72 -244 72t-244 -72 q-100 -70 -100 -170zM784 963h9q115 0 196 -56q82 -57 82 -137q0 -119 -151 -170q102 59 102 158q0 78 -68 135t-170 70z" />
<glyph unicode="@" d="M96 719q0 299 211 510q213 211 510 211t508 -211t211 -510q0 -297 -211 -508q-209 -211 -508 -211t-510 211t-211 508zM547 686q16 -92 65 -162q57 -88 105 -86q20 0 53 15q31 14 57 14q27 0 60 -14q31 -12 53 -13q45 0 102 82q-4 -6 48 96q-14 0 -46 29q-45 43 -47 107 q0 92 74 129q-45 66 -123 65q-31 4 -74 -12q-47 -18 -55 -18q-10 0 -49 14q-37 16 -61 14q-92 0 -140 -84q-40 -72 -22 -176zM813 956q59 -6 100 48q41 47 35 108q-57 -4 -98 -51q-43 -52 -37 -105z" />
<glyph unicode="A" horiz-adv-x="1570" d="M100 383q0 3 2 6q6 10 19 2q315 -180 682 -180q256 0 483 92l37 14q20 8 31 -6q10 -16 -8 -26q-31 -29 -60 -41q-215 -133 -498 -133q-397 0 -682 262q-6 5 -6 10zM479 748q0 180 158 239q55 31 166 45q82 8 110 8v21q0 84 -18 108q-29 39 -80 39h-12q-90 -10 -111 -92 q-8 -25 -24 -24l-146 14q-25 10 -18 33q41 209 299 225h31q141 0 223 -74q63 -57 63 -254v-233q0 -63 60 -135q12 -23 -4 -37q-27 -25 -115 -96q-8 -12 -33 -5q-41 35 -84 97q-76 -74 -141 -92q-49 -14 -103 -15q-96 0 -155 58q-66 61 -66 170zM692 774q0 -106 92 -106h19 q57 18 82 69q28 40 28 148v8v29q-78 0 -110 -9q-111 -33 -111 -139zM1219 367q0 5 8 12q30 21 59 31q47 13 96 13q12 0 25 -1q55 -6 63 -21q8 -8 9 -22v-6q-10 -131 -93 -199q-6 -6 -13 -6h-3q-8 4 -2 12q44 108 44 152q0 15 -5 22q-10 13 -68 13q-23 0 -53 -2l-55 -7 q-12 0 -12 9z" />
<glyph unicode="B" horiz-adv-x="1286" d="M96 600v608q0 49 37 86q35 35 86 35q49 0 86 -35q35 -37 35 -86v-608q0 -102 72 -174q72 -70 172 -70h121q102 0 174 62q69 60 69 147q0 90 -39 154q-37 61 -82 61h-243q-51 0 -86 37q-37 35 -37 86q0 49 37 86q35 35 86 35h243q152 0 258 -133t107 -324 q0 -188 -141 -323q-143 -133 -346 -133h-121q-203 0 -344 143q-143 143 -144 346z" />
<glyph unicode="C" horiz-adv-x="1490" d="M96 586v178q0 29 29 29h313l-135 -236h-178q-29 0 -29 29zM199 166l14 119q0 10 10 14q8 4 17 0l77 -45q23 -14 5 -33l-101 -65q-23 -18 -22 10zM250 355q0 8 4 18l358 618q10 25 41 13l76 -46q25 -12 12 -40l-358 -619q-10 -25 -41 -12l-76 45q-16 8 -16 23zM616 557 l136 236h77l111 -236h-324zM709 1289q0 16 6 16q13 0 198 -299q82 -125 244 -449q14 -23 -2 -45q-14 -18 -35 -25q-41 -14 -61 -4q-25 12 -225 465q-125 281 -125 341zM1092 793h276q29 0 29 -29v-178q0 -29 -29 -29h-156q-2 2 -4 12q-2 8 -6 13l-26 55zM1105 414 q0 13 19 24l45 23q9 5 16 5q15 0 23 -20l37 -69q12 -29 -10 -49l-33 -19q-27 -12 -45 13l-43 73q-9 10 -9 19zM1197 250q0 22 20 41q27 15 48 15q44 0 58 -68q6 -31 7 -66q0 -21 -3 -43q-4 13 -47 33q-49 23 -68 49q-15 20 -15 39z" />
<glyph unicode="D" horiz-adv-x="1388" d="M96 719q0 248 174 422q176 176 424 176t424 -176q176 -174 176 -422t-176 -424q-174 -176 -424 -176q-248 0 -424 176q-174 174 -174 424zM197 694q4 -178 131 -313q152 229 417 319q-14 27 -30 72q-227 -82 -449 -82zM199 793h67q211 0 406 71q-84 156 -207 297 q-225 -119 -266 -368zM401 311q139 -92 293 -92q90 0 158 25q-14 178 -74 362q-236 -80 -377 -295zM565 1198q117 -145 199 -297q145 63 276 176q-145 140 -346 140q-63 0 -129 -19zM807 809l35 -82q100 18 162 18q84 0 190 -26q0 147 -88 280q-141 -119 -299 -190zM874 631 q51 -152 74 -342q190 111 236 332q-96 22 -173 22h-7q-63 0 -130 -12z" />
<glyph unicode="E" horiz-adv-x="1644" d="M96 268v903h436q164 0 236 -96q41 -57 41 -135q0 -86 -45 -133q-16 -27 -66 -51q72 -31 103 -82q37 -59 37 -133t-41 -144q-29 -43 -66 -69q-31 -27 -100 -49q-66 -10 -129 -11h-406zM303 426h193q61 0 92 16q59 27 59 113q0 69 -59 96q-20 14 -88 15h-197v-240zM303 817 h193q55 0 96 23q37 23 37 78q0 63 -49 83q-49 14 -107 15h-170v-199zM907 614q0 164 90 258q87 89 232 89q82 0 151 -29q70 -37 111 -96q41 -68 51 -136q8 -61 8 -127h-473q0 -94 68 -135q34 -26 88 -26h4q53 0 94 30q23 14 35 43h172q-6 -59 -61 -116q-80 -92 -244 -93 q-129 0 -229 76q-96 82 -97 262zM1044 1042v93h361v-93h-361zM1081 684h291q-6 63 -43 104q-45 33 -100 33q-68 0 -103 -37q-33 -39 -45 -100z" />
<glyph unicode="F" horiz-adv-x="862" d="M96 674v239h193v119q0 131 84 221q84 92 202 93h193v-236h-193q-47 0 -47 -74v-123h240v-239h-240v-582h-239v582h-193z" />
<glyph unicode="G" horiz-adv-x="854" d="M96 358q0 131 133 207q-23 51 -22 107q-1 66 26 119q-104 84 -104 213q0 115 80 194q80 82 192 82q72 0 146 -47l198 110v-184l-96 -51q37 -45 37 -104q0 -115 -82 -197q-80 -80 -194 -80h-9q-10 0 -10 -55q0 -31 10 -56h27q139 0 236 -75q96 -74 96 -183 q0 -106 -96 -182t-236 -76q-137 0 -235 76q-96 76 -97 182zM281 358q0 -41 43 -69q43 -29 104 -29t104 29t43 69q0 41 -43 72q-43 29 -104 29t-104 -29q-43 -31 -43 -72zM281 1004q0 -55 38 -93q37 -37 91 -37q53 0 90 37q39 37 39 93q0 53 -39 90q-37 39 -90 39 q-51 0 -91 -39q-39 -37 -38 -90z" />
<glyph unicode="H" horiz-adv-x="1427" d="M96 991q0 141 99 240q98 98 239 98q108 0 184 -55q31 8 93 8q236 0 401 -166q166 -166 166 -397q0 -53 -2 -78q57 -86 57 -192q0 -141 -98 -240q-98 -98 -240 -98q-100 0 -180 51q-51 -12 -104 -12q-236 0 -402 167q-166 166 -166 402q0 57 9 88q-55 78 -56 184zM371 502 q0 -49 49 -96q112 -106 302 -106q20 0 40 1q143 6 235 105q62 67 62 138q0 37 -17 74q-39 98 -163 146q-12 4 -238 61q-92 22 -92 74q0 15 8 33q35 74 143 74q72 -2 154 -70q74 -64 95 -64h1q51 6 66 62q3 12 3 24q0 46 -50 89q-108 95 -277 95q-29 0 -59 -3 q-100 -10 -166 -68q-76 -68 -84 -176q-1 -9 -1 -18q0 -92 97 -156q86 -57 213 -76q98 -16 146 -49q34 -24 34 -54q0 -25 -24 -53q-43 -48 -116 -48q-13 0 -27 1q-61 8 -115 37l-62 62q-43 41 -82 41h-4q-59 -4 -69 -60q-2 -10 -2 -20z" />
<glyph unicode="I" horiz-adv-x="1232" d="M96 1243q0 59 41 100q41 43 99 43q57 0 100 -43q41 -41 41 -100q0 -57 -41 -100q-41 -41 -100 -41q-57 0 -99 41q-41 41 -41 100zM121 225v793h229v-793h-229zM461 225v793h229v-37q67 34 136 34q77 0 159 -42q154 -86 154 -264v-484h-226v484q0 53 -39 65q-32 18 -65 18 q-59 0 -119 -59v-508h-229z" />
<glyph unicode="J" horiz-adv-x="1886" d="M103 500q0 16 1 32q14 303 334 435l-100 198l244 31l82 -166q6 0 14 2q168 28 319 28q317 0 555 -126q176 -92 246 -203l-778 -221l-180 364q55 9 110 9q66 0 133 -13l74 -139l264 70q-80 57 -209 98q-140 47 -275 47q-111 0 -218 -31l213 -432l-778 -225 q-51 111 -51 242zM350 585q0 -39 15 -69l258 72l-115 235q-139 -88 -156 -207q-2 -16 -2 -31z" />
<glyph unicode="K" horiz-adv-x="1636" d="M96 590v766h262v-373q193 111 461 111q297 0 510 -144q213 -145 213 -346q0 -205 -213 -348q-211 -145 -510 -145q-293 0 -504 139q-209 139 -219 340zM358 604q0 -137 136 -233q135 -94 325 -95q191 1 326 95q135 96 135 233q0 135 -135 232q-135 96 -326 96 q-190 0 -325 -96t-136 -232zM516 604q0 90 88 152q88 61 215 61q125 0 213 -61q90 -63 90 -152q0 -90 -90 -153q-88 -63 -213 -64q-127 0 -215 64q-88 63 -88 153z" />
<glyph unicode="L" horiz-adv-x="1572" d="M96 516q102 -96 250 -96q154 2 262 112q-14 -2 -26 -2q-47 0 -66 37q-6 12 -6 23q0 34 57 59q-13 -1 -26 -1q-102 0 -146 87q35 33 97 37q-137 27 -156 135q46 13 74 13h10q-117 59 -117 159v13q178 -66 354 -154q29 -16 107 -86q88 252 213 336q0 -20 -19 -45 q47 47 107 53q-2 -27 -74 -55l29 10q27 10 45 14q28 8 44 8t19 -8q6 -18 -34 -32l-84 -27q10 1 20 1q85 0 160 -60q84 -68 113 -173q6 -25 6 -28q34 -13 67 -13q51 0 99 31q-39 -84 -152 -92q44 -20 101 -20q26 0 55 4q-53 -61 -162 -62q-41 -167 -191 -286 q-141 -115 -331 -152q-75 -14 -148 -14q-118 0 -229 37q-197 68 -322 237z" />
<glyph unicode="M" horiz-adv-x="1259" d="M96 590v244q0 59 39 98q41 41 98 41q102 0 129 -107q59 74 154 74q154 0 193 -147q73 73 185 73h3q111 0 190 -78q78 -78 78 -188v-500h-534v279h-322v211h-213zM111 1140q0 50 32 85q34 32 79 32h2.5h3.5q45 0 79 -32q33 -35 33 -82q0 -49 -33 -84q-35 -35 -82 -35 t-82 35q-32 34 -32 81zM365 1143q0 61 45 106q43 45 106 45q62 0 107 -45t45 -106q0 -63 -45 -107q-45 -45 -107 -45q-63 0 -106 45q-45 43 -45 107zM700 1143q0 80 58 137q57 57 139 57t139 -57q55 -57 56 -137q0 -84 -56 -142q-57 -57 -139 -57t-139 57q-57 59 -58 142z " />
<glyph unicode="N" horiz-adv-x="1626" d="M96 719q0 131 92 221q92 92 222 92q131 0 221 -92q92 -90 92 -221t-92 -221q-90 -92 -221 -92q-129 0 -222 92q-92 90 -92 221zM907 719q0 131 92 221q92 92 220 92q129 0 221 -92q92 -90 92 -221t-92 -221q-92 -92 -221 -92q-127 0 -220 92q-92 92 -92 221z" />
<glyph unicode="O" horiz-adv-x="835" d="M96 809v145q76 27 115 58q41 33 70 90q23 41 36 129h144v-238h239v-184h-239v-264q0 -92 8 -111q10 -25 41 -45q27 -18 76 -18q84 0 155 49v-164q-70 -29 -118 -43q-55 -12 -117 -12q-45 0 -111 18q-53 18 -92 53q-43 33 -51 70q-16 31 -16 107v360h-140z" />
<glyph unicode="P" horiz-adv-x="1431" d="M96 217l248 1135h557q141 0 232 -95q75 -78 75 -195q0 -47 -10 -97q-39 -172 -166 -273q-125 -100 -295 -100h-231l-82 -375h-328zM225 80l15 59h274l80 375h233q170 0 295 100q129 100 166 273q10 48 10 92q0 69 -26 125q65 -75 65 -182q0 -47 -10 -97 q-37 -172 -166 -274q-127 -98 -295 -98h-235l-78 -373h-328zM551 809h162q59 2 112 47q51 45 68 109q0 10 4 14q1 8 1 18q0 20 -5 45q-27 78 -111 78h-161z" />
<glyph unicode="Q" horiz-adv-x="1363" d="M106 760v22q8 238 187 410q178 170 418 170t405 -170q160 -166 160 -393v-17q-13 -311 -281 -483q74 -98 139 -98q8 0 17 2v-99q-37 -20 -88 -24q-12 -1 -23 -1q-83 0 -141 66q-31 35 -61 84q-75 -26 -160 -26h-6q-242 0 -408 170q-158 160 -158 387zM397 770 q0 -161 80 -278q84 -125 209 -125q43 0 74 14l-27 47q-33 45 -78 45q-13 0 -28 -4v100q33 15 77 15h15q106 -6 174 -107q104 129 111 316v16q0 166 -80 283q-82 125 -209 125q-125 0 -217 -125q-92 -123 -101 -299v-23z" />
<glyph unicode="R" horiz-adv-x="1441" d="M96 264q0 70 49 117q47 49 117 49t117 -49q49 -47 49 -117t-49 -117q-47 -49 -117 -49t-117 49q-49 47 -49 117zM96 686v240q342 0 584 -244q244 -242 244 -584h-244q0 244 -170 414q-174 174 -414 174zM96 1110v240q518 0 885 -367t367 -885h-240q0 418 -297 715 t-715 297z" />
<glyph unicode="S" horiz-adv-x="1667" d="M96 506v203h254v-203q0 -80 78 -80q76 0 76 80v461q0 135 96 233q98 98 236 98q135 0 233 -98q96 -98 96 -233v-93l-151 -47l-105 47v93q0 31 -20 55q-23 23 -53 22q-31 0 -54 -22q-23 -25 -22 -55v-471q0 -137 -98 -230q-96 -92 -234 -92q-137 0 -235 96q-96 98 -97 236 zM909 496v209l105 -48l151 48v-209q0 -78 76 -78q78 0 78 78v202h254v-202q0 -137 -96 -236q-96 -96 -236 -96q-135 0 -233 96q-98 98 -99 236z" />
<glyph unicode="T" horiz-adv-x="1093" d="M96 641v502q0 57 41 98t99 41q61 0 102 -41q39 -39 39 -98v-139h483q57 0 98 -41q41 -43 41 -105q0 -57 -41 -98t-98 -41h-483v-78q0 -82 53 -145q53 -61 123 -62h309q59 0 99 -39q38 -38 38 -97q0 -60 -41 -101t-98 -41h-313q-186 0 -318 141q-133 143 -133 344z" />
<glyph unicode="U" horiz-adv-x="1396" d="M96 506v444q0 158 111 273q112 112 267 112h3h268q82 -10 166 -67q92 -61 129 -144q25 -49 37 -129q16 -90 29 -102q18 -18 86 -19q72 -4 80 -8l18 -14l13 -23v-323q0 -158 -113 -273q-112 -112 -267 -112h-3h-443q-158 0 -270 112q-111 115 -111 273zM410 510 q0 -31 22 -53q20 -23 51 -23h432q31 0 54 23q20 23 20 51q0 74 -74 74h-432q-73 0 -73 -72zM410 948q0 -74 73 -74h211q74 0 74 74q0 29 -20 51q-23 23 -54 23h-211q-31 0 -51 -23q-23 -23 -22 -51z" />
<glyph unicode="V" horiz-adv-x="1613" d="M96 1012q242 287 426 323q16 3 31 3q101 0 147 -160q16 -57 33 -168q20 -127 29 -162q78 -283 119 -283q61 0 198 254q34 65 34 115q0 44 -26 78q-28 37 -72 37q-43 0 -102 -35q23 139 131 233q100 86 222 99q20 2 39 2q97 0 155 -60q59 -59 59 -159q0 -36 -8 -78 q-51 -291 -307 -594q-184 -215 -350 -320q-46 -31 -93 -31q-44 0 -89 27q-74 43 -115 129q-25 49 -127 381q-94 313 -117 338q-14 17 -37 17q-44 0 -122 -64z" />
<glyph unicode="W" horiz-adv-x="1441" d="M96 713q0 123 56 254l299 -815q-160 76 -256 225q-98 154 -99 336zM201 1055q181 280 518 280h2h3q244 0 421 -161h-12q-43 0 -74 -35q-29 -33 -29 -76q0 -51 62 -148q53 -96 53 -170q0 -72 -49 -202l-62 -207l-225 668l70 8q25 2 22 26q-2 25 -27 25q-98 -8 -165 -8 q-61 0 -166 8q-25 0 -27 -25t23 -26l67 -8l96 -265l-137 -409l-225 674l70 8q27 2 24 26q-2 25 -26 25q-100 -8 -166 -8h-41zM547 115l184 542l193 -524l6 -6q-90 -37 -209 -37q-100 0 -174 25zM1034 174l191 549q49 121 49 225q0 45 -4 64q78 -145 78 -299 q0 -360 -314 -539z" />
<glyph unicode="X" horiz-adv-x="1261" d="M96 571v74h269v-74h-93v-450h-84v450h-92zM180 1329h96l66 -231h4l64 231h98l-115 -338v-239h-98v227zM397 184v324h78v-295q0 -6 2 -14l2 -9q4 -4 19 -4q10 0 22 9q14 8 21 18v295h77v-387h-77v45q-20 -27 -43 -37q-20 -12 -45 -12q-29 0 -41 14q-14 23 -15 53zM516 858 v221q0 49 33 82q41 29 96 29t88 -33q33 -27 33 -78v-221q0 -57 -33 -84q-35 -35 -92 -35t-92 35q-33 31 -33 84zM604 850q0 -12 8 -25q10 -12 29 -12q15 0 27 12q10 10 10 25v233q0 16 -10 23q-14 10 -27 10q-20 0 -27 -10q-10 -6 -10 -23v-233zM678 121v524h78v-166 q12 12 32 25q10 8 37 8q33 0 56 -23q18 -33 18 -73v-213q0 -37 -18 -64q-16 -23 -52 -22q-20 0 -41 8q-20 12 -32 25v-29h-78zM756 195q6 -8 18 -15l19 -4q8 0 22 10q2 4 2 27v199q0 23 -6 30q-6 10 -23 11l-18 -4l-14 -11v-243zM836 821v359h90v-330q0 -18 2 -21 q8 -8 18 -8t27 10q14 8 26 23v326h88v-428h-88v47q-12 -14 -53 -41q-33 -14 -47 -15q-31 0 -47 23q-16 20 -16 55zM940 231v175q0 47 33 79q33 33 84 33q53 0 82 -29q29 -35 28 -83v-101h-147v-74q0 -33 8 -41q6 -10 27 -10q12 0 24 6q8 8 8 45v19h80v-19q0 -57 -28 -92 q-28 -28 -84 -28h-4q-49 0 -82 32q-29 35 -29 88zM1020 369h67v37q0 20 -8 36q-12 6 -24 7q-14 0 -27 -7q-8 -7 -8 -36v-37z" />
<glyph unicode="Y" horiz-adv-x="1904" d="M96 1124v109h764l2 -12l-2 -15v-82h-229l313 -415l305 276h-184l-25 107h670l-2 -7h2l-47 -71h-4l-19 -29h-120l-41 -8q-39 -8 -234 -168q-203 -164 -219 -215q-10 -57 -10 -123q0 -84 16 -182q14 -2 117 -2q106 0 123 -2l-4 -78q-33 4 -394 4l-350 -8l11 73 q215 25 221 31q10 10 10 133q0 119 -6 154q-8 33 -191 254q-184 227 -247 276h-226zM1571 215v111l65 -9l60 -4l-15 -110l-59 4zM1585 879q74 -23 225 -23l-118 -465l-103 8z" />
<glyph unicode="Z" horiz-adv-x="1146" d="M96 274q219 59 307 250q9 12 15 82q20 258 174 338q47 -29 88 -33v-10q0 -31 6 -41l8 -18l19 -8q50 -17 104 -17h6q80 0 166 35l51 -113q-123 -65 -244 -65q-38 0 -75 6h-27q-31 0 -45 -41q-2 -27 23 -41q-8 6 43 -23q49 -27 96 -61q150 -117 242 -299l-129 -78 q-86 166 -322 271q-25 6 -18 6q-18 0 -29 -15l-23 -26q-150 -203 -372 -260zM410 1165q0 70 49 117q47 49 116 49q70 0 117 -49q49 -47 49 -117t-49 -116q-47 -49 -117 -50q-70 0 -116 50q-49 47 -49 116z" />
<glyph unicode="a" d="M96 719q0 297 211 508t510 211t508 -211q211 -209 211 -508t-211 -510t-508 -211t-510 211q-211 213 -211 510zM434 541q0 -3 4 -6q158 -145 379 -146q158 0 277 74q12 6 32 22q10 6 4 15q-6 8 -16 4l-20 -8q-129 -51 -269 -52q-205 0 -379 101q-8 4 -10 0q-2 -2 -2 -4z M645 743q0 -127 123 -127q25 0 57 9q39 12 78 51q25 -37 47 -53q12 -4 19 2q25 18 63 53q10 10 2 20q-33 41 -33 76v129q0 109 -34 141q-47 41 -125 41h-17q-145 -8 -166 -124q-4 -14 11 -19l80 -8q10 0 14 14q10 43 61 51h6q29 0 46 -22q10 -14 10 -59v-13q-16 0 -62 -4 q-61 -8 -92 -24q-88 -35 -88 -134zM764 758q0 59 61 78q18 4 62 4v-17q0 -61 -17 -86q-14 -29 -45 -39h-10q-51 0 -51 60zM1053 530q0 -4 10 -4l31 4q17 1 30 1q32 0 37 -7q2 -4 2 -11q0 -24 -24 -85q-4 -4 2 -6q1 -1 3 -1l5 3q45 39 51 111v4q0 8 -4 12q-9 15 -38 15 q-25 0 -64 -11q-12 -4 -33 -16q-8 -6 -8 -9z" />
<glyph unicode="b" d="M96 721q0 295 209 506q207 211 504 213h14q295 -4 504 -213q209 -211 209 -506q0 -297 -211 -510q-211 -211 -510 -211q-297 0 -508 211t-211 510zM528 653q0 -113 80 -192q78 -80 191 -80h67q113 0 191 76q80 74 80 178q0 106 -60 180q-59 74 -143 74h-135 q-68 0 -68 -68q0 -67 66 -67h2h135q25 0 47 -35q20 -35 20 -84t-38 -82q-39 -35 -97 -35h-67q-55 0 -94 39q-41 39 -41 96v338q0 68 -68 68t-68 -68v-338z" />
<glyph unicode="c" d="M96 719q0 297 211 508t510 211t508 -211q211 -209 211 -508t-211 -510t-508 -211t-510 211q-211 213 -211 510zM455 645q0 -16 16 -16h98l76 131h-174q-16 0 -16 -17v-98zM512 412q0 -14 12 -6l56 36q10 10 -2 19l-43 24q-14 10 -15 -8zM540 516q0 -8 9 -12l43 -25 q16 -8 22 6l199 344q8 16 -6 23l-43 25q-16 8 -23 -7l-198 -344q-3 -6 -3 -10zM743 629h181l-62 131h-43zM795 1035q0 -34 69 -189q111 -250 125 -258q12 -6 35 2q39 12 20 39q-90 180 -135 250q-106 168 -110 165q-4 -1 -4 -9zM1008 760l47 -86l20 -45h86q16 0 17 16v98 q0 16 -17 17h-153zM1016 549q0 -5 4 -10l24 -41q10 -14 25 -6l18 10q12 10 7 26l-21 39q-5 11 -13 11q-4 0 -9 -3l-25 -12q-10 -6 -10 -14zM1066 459q0 -11 9 -23q10 -14 37 -26q25 -10 27 -19q2 13 2 26q0 19 -4 36q-8 37 -32 37q-12 0 -28 -9q-11 -11 -11 -22z" />
<glyph unicode="d" d="M96 719q0 299 211 508q211 211 508 211q299 0 510 -211t211 -508q0 -299 -211 -510t-510 -211t-508 211q-211 211 -211 510zM483 719q0 -139 97 -236q98 -98 235 -98q139 0 236 98q98 98 98 236q0 137 -98 233q-98 98 -236 99q-137 -1 -235 -99q-96 -96 -97 -233z M539 705l39 -3q121 0 249 46q6 -18 17 -39q-148 -52 -232 -179q-70 74 -73 175zM541 760q23 139 147 205q70 -84 115 -166q-108 -39 -225 -39h-37zM653 492q80 120 209 163q33 -98 41 -200q-41 -14 -88 -15q-84 0 -162 52zM743 985q41 10 72 10q111 0 193 -77 q-70 -62 -154 -99q-45 86 -111 166zM879 768q88 41 165 106q49 -76 50 -155q-63 14 -107 14q-39 0 -90 -10q-2 8 -8 22q-6 16 -10 23zM915 670q37 6 72 6q49 0 100 -12q-27 -123 -131 -185q-14 109 -41 191z" />
<glyph unicode="e" d="M96 721q0 295 209 506q209 209 504 213h14q297 -2 504 -213q209 -211 209 -506q0 -299 -211 -510t-508 -211t-510 211q-211 213 -211 510zM414 469h225q39 0 72 6q37 10 55 27q23 16 37 39q22 37 22 77q0 42 -20 76q-16 29 -57 45q27 14 36 29q25 29 25 74q0 43 -23 76 q-41 53 -131 53h-241v-502zM528 557v133h109q35 0 49 -8q33 -14 33 -53q0 -50 -33 -64q-16 -8 -51 -8h-107zM528 774v111h95q27 0 59 -8q27 -12 27 -48q0 -31 -21 -43q-20 -12 -53 -12h-107zM864 662q0 -100 54 -146q55 -43 126 -43q90 0 136 51q33 35 34 66h-96 q-6 -14 -18 -25q-23 -16 -53 -16q-31 0 -52 14q-37 23 -37 76h263q0 37 -4 70q-6 39 -29 75q-23 35 -62 54q-39 16 -84 16q-80 0 -129 -49q-49 -51 -49 -143zM940 899h201v51h-201v-51zM961 700q6 35 24 56q20 20 57 20q31 0 56 -18q22 -23 24 -58h-161z" />
<glyph unicode="f" horiz-adv-x="1628" d="M96 719q0 299 211 510t508 211t508 -211t211 -510q0 -297 -211 -508q-209 -211 -508 -211q-297 0 -508 211t-211 508zM629 694h106v-323h133v323h133v133h-133v68q0 41 27 41h106v131h-106q-66 0 -113 -51t-47 -123v-66h-106v-133z" />
<glyph unicode="g" horiz-adv-x="1628" d="M96 723q0 299 211 508q211 211 508 211q299 0 508 -211q211 -209 211 -508t-211 -510q-209 -211 -508 -211t-508 211q-211 211 -211 510zM631 520q0 -59 53 -102q53 -41 131 -41t131 41q53 43 53 102t-53 103q-53 41 -131 41h-14q-6 12 -6 30q0 31 6 31h4q63 0 108 45 t45 109q0 33 -20 57l53 29v102l-110 -61q-38 26 -77 26h-3q-63 0 -107 -45q-45 -45 -45 -108q0 -72 58 -119q-14 -29 -15 -66q1 -30 13 -59q-74 -43 -74 -115zM733 520q0 55 82 55t82 -55t-82 -55t-82 55zM733 879q0 71 70 71h2q72 0 72 -71q0 -72 -72 -72t-72 72z" />
<glyph unicode="h" d="M96 719q0 297 211 508t510 211t508 -211q211 -209 211 -508q0 -297 -211 -508q-209 -211 -508 -211t-510 211t-211 508zM473 870q0 -59 31 -102q-4 -16 -4 -49q0 -131 92 -223t223 -93q31 0 57 7q45 -29 101 -29q78 0 133 55t55 133q0 57 -33 107q2 14 2 43 q0 129 -92 221t-223 92q-35 0 -51 -4q-43 31 -102 31q-79 0 -134 -55t-55 -134zM626 599q0 5 1 11q6 31 39 33q-1 0 -1 -1q0 -6 83 -56q44 -24 79 -24q38 0 64 30q16 19 16 34q0 38 -102 52q-173 27 -173 128q0 6 1 11q8 123 139 135q16 1 32 1q93 0 154 -52q28 -24 28 -51 q0 -6 -1 -12q-8 -29 -37 -33h-1q-13 0 -52 35q-45 37 -86 39q-59 0 -80 -41q-4 -9 -4 -17q0 -29 51 -43q123 -31 133 -35q68 -27 90 -79q9 -21 9 -42q0 -39 -33 -77q-51 -53 -131 -58q-13 -1 -26 -1q-104 0 -165 59q-27 27 -27 54z" />
<glyph unicode="i" d="M96 721q0 299 211 508q211 211 508 211q299 0 510 -211t211 -508t-211 -510q-211 -211 -510 -211q-297 0 -508 211t-211 510zM535 1049q0 -78 77 -78q78 0 78 78q0 33 -22 55q-22 24 -53 24h-2.5h-2.5q-30 0 -53 -24q-23 -23 -22 -55zM549 483h127v441h-127v-441z M737 483h127v283q34 33 66 33q19 0 37 -11q23 -8 22 -36v-269h125v269q0 98 -86 147q-44 23 -87 23q-39 0 -77 -19v21h-127v-441z" />
<glyph unicode="j" horiz-adv-x="1628" d="M96 719q0 295 209 506q207 211 502 213h16q295 -2 504 -213q207 -211 207 -506q0 -299 -211 -510t-508 -211t-508 211t-211 510zM395 611q0 -78 29 -144l432 125l-119 239q70 20 137 20q135 0 254 -83l-147 -39l-41 78q-37 8 -73 8q-31 0 -62 -6l100 -203l432 123 q-39 61 -135 113q-133 71 -310 71q-83 0 -177 -16q-4 -2 -8 -2l-45 92l-136 -16l56 -111q-178 -74 -187 -239v-10zM530 657q0 65 91 123l63 -131l-143 -39q-11 24 -11 47z" />
<glyph unicode="k" d="M96 719q0 297 209 506q207 209 504 213h14q297 -4 504 -213q209 -209 209 -506t-211 -508t-510 -211q-297 0 -508 211t-211 508zM440 653q4 -111 121 -188q119 -78 281 -78q166 0 284 80q117 82 117 195t-117 192q-119 80 -284 80q-145 0 -256 -62v207h-146v-426z M586 662q0 76 76 129q74 53 180 53t180 -53q76 -53 76 -129t-76 -130q-74 -53 -180 -53t-180 53q-76 53 -76 130zM674 662q0 -51 49 -87q48 -34 115 -34h4q70 0 119 34q49 35 49 87q0 49 -49 83q-49 35 -119 35t-119 -35t-49 -83z" />
<glyph unicode="l" d="M96 719q0 297 211 508t510 211t508 -211q211 -209 211 -508q0 -297 -211 -508q-209 -211 -508 -211t-510 211t-211 508zM432 606q113 -155 294 -155q45 0 95 10q240 45 289 244h3q57 0 87 34q-15 -3 -29 -3q-30 0 -57 12q63 6 84 51q-28 -18 -56 -18q-18 0 -36 7 q0 8 -4 17q-16 57 -62 96q-42 33 -90 33h-10l18 6q51 16 48 27q-1 3 -8 3q-17 0 -68 -18q39 16 41 31q-33 -2 -60 -29q10 14 11 25q-68 -47 -119 -186q-39 37 -60 47q-92 47 -196 86v-6q0 -55 65 -91q-12 2 -47 -6q10 -59 86 -75q-35 -2 -53 -21q24 -48 79 -48q8 0 17 1 q-43 -18 -28 -45q14 -27 51 -21q-59 -61 -146 -61q-82 0 -139 53z" />
<glyph unicode="m" d="M96 719q0 299 211 508q211 211 508 211q299 0 510 -211t211 -508t-211 -508t-510 -211q-297 0 -508 211t-211 508zM518 647h119v-117h178v-155h297v278q0 61 -43 105q-45 43 -106 43q-63 0 -105 -41q-20 82 -106 82q-51 0 -86 -41q-14 59 -72 59q-76 0 -76 -78v-135z M526 954q0 -65 62 -65h2q63 0 63 65q0 63 -63 64q-64 -1 -64 -64zM668 954q0 -84 84 -84q35 0 59 25q25 25 25 59q0 35 -25 60q-24 24 -56 24h-2.5h-3.5q-33 0 -57 -24q-25 -25 -24 -60zM854 954q0 -45 33 -77q31 -33 76 -33t77 33q31 31 31 77q0 45 -31 76q-33 33 -77 33 q-45 0 -76 -33q-33 -31 -33 -76z" />
<glyph unicode="n" d="M96 719q0 297 211 508t510 211t508 -211q211 -209 211 -508q0 -297 -211 -508q-209 -211 -508 -211t-510 211t-211 508zM418 719q0 -72 51 -123t123 -51t123 51t51 123t-51 123t-123 51t-123 -51t-51 -123zM868 719q0 -72 52 -123q49 -51 120 -51q72 0 123 51t51 123 t-51 123t-123 51q-71 0 -120 -51q-51 -51 -52 -123z" />
<glyph unicode="o" d="M96 717q0 295 209 506q207 211 504 213h14q295 -4 504 -213q209 -211 209 -506q0 -297 -211 -510q-211 -211 -510 -211q-297 0 -508 211t-211 510zM637 768h78v-201q0 -43 8 -59q6 -18 29 -39q25 -20 51 -29q35 -10 61 -10q35 0 66 6q33 10 65 25v90q-41 -27 -86 -27 q-27 0 -43 11q-14 8 -22 24q-4 10 -4 62v147h133v102h-133v131h-80q-6 -47 -21 -71q-16 -33 -39 -49q-18 -16 -63 -33v-80z" />
<glyph unicode="p" d="M96 715q0 299 211 508q211 211 508 211q299 0 510 -211t211 -508t-211 -508t-510 -211q-297 0 -508 211t-211 508zM471 438h182l45 209h129q94 0 164 55q72 55 92 152q5 27 5 51q0 67 -41 113q-49 51 -129 51h-310zM543 362h182l43 207h131q94 0 164 56q72 55 92 151 q6 27 6 51q0 61 -37 105q14 -32 14 -71q0 -24 -5 -50q-20 -96 -91 -152q-72 -55 -165 -55h-129l-46 -209h-151zM723 768l39 172h90q47 0 61 -43q3 -13 3 -24q0 -6 -1 -11q-2 -2 -2 -8q-20 -82 -100 -86h-90z" />
<glyph unicode="q" d="M96 719q0 299 211 508q211 211 510 211t508 -211q211 -209 211 -508t-211 -510q-209 -211 -508 -211t-510 211t-211 510zM492 743q0 -126 88 -217q92 -94 225 -94q51 0 92 14q16 -25 35 -47q34 -41 77 -41q29 0 62 19v55q-5 -1 -9 -1q-35 0 -77 54q150 94 156 269v11 q0 126 -88 216q-92 94 -226 94q-133 0 -231 -94q-100 -94 -104 -227v-11zM653 752v8q4 96 56 166q50 69 118 69h2h2q69 0 115 -69q43 -63 43 -151v-15q-2 -104 -61 -176q-41 63 -97 63q-24 0 -51 -12v-55q8 2 16 2q25 0 44 -25l14 -27q-18 -8 -41 -8q-70 0 -117 70 q-43 67 -43 160z" />
<glyph unicode="r" d="M96 715q0 297 209 506t504 213h14q297 -4 504 -213q209 -209 209 -506t-211 -508q-209 -211 -508 -211t-510 211t-211 508zM496 472q0 -42 26 -69q26 -26 63 -26h3q39 0 65 26q27 27 27 66t-27 66q-26 26 -62 26h-2.5h-3.5q-37 0 -63 -26t-26 -63zM496 702q133 0 229 -96 q94 -94 94 -229h135q0 188 -135 323t-323 136v-134zM496 938q231 0 397 -164q164 -166 164 -397h133q0 287 -203 491q-205 203 -491 203v-133z" />
<glyph unicode="s" d="M96 721q0 299 211 508q211 211 508 211q299 0 510 -211q211 -209 211 -508t-211 -510t-510 -211t-508 211q-211 211 -211 510zM412 606q0 -76 53 -131q55 -53 131 -53t129 51q55 51 55 127v262q0 43 43 43q41 0 41 -43v-51l58 -27l84 27v51q0 76 -54 129q-53 55 -129 56 q-76 0 -131 -56q-53 -53 -53 -129v-256q0 -45 -43 -45t-43 45v113h-141v-113zM864 600q0 -76 56 -131q53 -53 129 -53q78 0 131 53q53 55 53 131v113h-141v-113q0 -43 -43 -43t-43 43v117l-84 -27l-58 27v-117z" />
<glyph unicode="t" d="M96 719q0 299 211 510q213 211 510 211t508 -211t211 -510q0 -297 -211 -508q-209 -211 -508 -211t-510 211t-211 508zM565 676q0 -113 74 -191q73 -79 173 -79h3h174q78 0 78 77q0 78 -76 78h-172q-39 0 -67 35q-31 35 -31 80v43h268q78 0 78 78q0 80 -78 80h-268v77 q0 78 -78 78t-78 -78v-278z" />
<glyph unicode="u" d="M96 717q0 299 211 508q211 211 508 211q299 0 510 -211t211 -508t-211 -508t-510 -211q-297 0 -508 211t-211 508zM492 604q0 -88 61 -149q61 -63 149 -64h246q88 0 150 64q63 61 63 149v180l-6 13l-10 8q-4 2 -45 4q-37 0 -47 10q-8 8 -17 58q-8 45 -20 71 q-47 104 -164 117h-150q-88 0 -149 -64q-61 -61 -61 -149v-248zM666 606q0 41 41 41h239q41 0 41 -41t-41 -41h-239q-41 0 -41 41zM666 850q0 41 41 41h116q41 0 41 -41t-41 -41h-116q-41 0 -41 41z" />
<glyph unicode="v" d="M96 719q0 299 211 508q211 211 508 211q299 0 510 -211t211 -508t-211 -508t-510 -211q-297 0 -508 211t-211 508zM420 885l33 -43q44 35 68 35q12 0 20 -9q12 -14 65 -186q57 -186 70 -213q23 -47 65 -72q25 -15 49 -15q26 0 52 17q92 59 194 179q141 168 170 329 q4 23 4 44q0 56 -32 87q-33 34 -86 34q-10 0 -21 -1q-70 -6 -123 -55q-61 -51 -74 -129q32 19 56 19q25 0 41 -21q15 -19 15 -44q0 -28 -19 -63q-78 -141 -111 -141q-25 0 -65 158l-17 90q-10 61 -18 92q-27 90 -83 90q-8 0 -16 -2q-102 -20 -237 -180z" />
<glyph unicode="w" d="M96 713q0 299 211 508q211 211 508 211q299 0 510 -211q211 -209 211 -508t-211 -508q-211 -211 -510 -211q-297 0 -508 211t-211 508zM469 713q0 -219 197 -312l-166 453q-31 -72 -31 -141zM526 903h23q37 0 92 4q14 0 14 -14q2 -12 -12 -14l-39 -5l125 -374l76 227 l-53 147l-37 5q-14 2 -13 14q0 14 15 14q57 -4 92 -4q37 0 92 4q14 0 14 -14q2 -12 -12 -14l-39 -5l125 -370l35 114q27 74 27 113q0 41 -29 94q-35 53 -35 82q0 61 57 62h7q-100 90 -236 90q-187 0 -289 -156zM719 381q43 -14 96 -14q64 0 117 20l-4 4l-107 291zM989 414 q174 98 174 299q0 86 -43 166q2 -10 2 -35q0 -61 -26 -125z" />
<glyph unicode="x" d="M96 719q0 299 211 510q213 211 510 211t508 -211t211 -510q0 -297 -211 -508q-209 -211 -508 -211t-510 211t-211 508zM518 637h51v-250h47v250h52v41h-150v-41zM565 1059l64 -195v-127h55v133l64 189h-56l-35 -129h-2l-37 129h-53zM686 422q0 -18 8 -29q6 -8 23 -8 q12 0 24 6q14 6 25 21v-25h43v215h-43v-164q-8 -8 -12 -10q-6 -4 -13 -4q-8 0 -10 2l-2 12v164h-43v-180zM752 797q0 -29 18 -47t51 -19q33 0 51 19q18 16 19 47v123q0 29 -19 43q-18 18 -49 18t-53 -16q-18 -18 -18 -45v-123zM801 793v129q0 10 6 12q4 6 14 6q8 0 15 -6 q6 -2 6 -12v-129q0 -8 -6 -15q-6 -6 -15 -6q-10 0 -16 6q-4 8 -4 15zM842 387h43v16q6 -6 18 -14q12 -4 23 -4q20 0 28 12q10 14 11 35v119q0 25 -11 41q-12 12 -30 12q-15 0 -21 -4q-12 -8 -18 -14v92h-43v-291zM885 428v135l14 8h4q10 0 12 -6q4 -4 5 -16v-111 q0 -12 -2 -14q-6 -6 -13 -6l-10 2q-4 2 -10 8zM930 776q0 -18 8 -31q10 -12 27 -12q10 0 26 8q20 12 29 23v-27h49v238h-49v-180q-4 -8 -14 -13q-8 -6 -15 -6q-6 0 -10 4q-2 2 -2 13v182h-49v-199zM987 449q0 -29 17 -50q18 -18 45 -18q33 0 49 16q16 20 16 52v10h-45v-10 q0 -20 -4 -25q-4 -4 -14 -4t-15 6q-4 4 -4 23v40h82v56q0 27 -16 47q-16 16 -45 16t-47 -18t-19 -45v-96zM1032 524v21q0 16 4 20q5 4 15 4t14 -4q4 -8 4 -20v-21h-37z" />
<glyph unicode="y" d="M96 717q0 299 211 510t510 211q297 0 508 -211t211 -510q0 -297 -211 -508q-209 -211 -508 -211t-510 211q-211 209 -211 508zM340 944h125q35 -29 137 -153q102 -123 107 -142q12 -64 12 -103q0 -43 -14 -57q-4 -4 -123 -16l-6 -41l194 4q201 0 219 -2l2 43q-8 2 -67 2 h-66q-10 49 -10 97q0 37 6 73q10 29 123 119q106 88 129 94l22 4h68l39 56h-2l2 4h-373l15 -60h102l-170 -153l-78 102q-61 78 -96 129h127v45l2 8l-2 7h-424v-60zM1159 438l62 -6l8 62l-70 6v-62zM1167 807l2 -266l58 -4l65 258q-82 0 -125 12z" />
<glyph unicode="z" horiz-adv-x="1628" d="M96 719q0 299 211 508q211 211 508 211q299 0 508 -211q211 -209 211 -508q0 -297 -211 -508q-209 -211 -508 -211q-297 0 -508 211t-211 508zM549 473l35 -90q125 33 207 145l12 15q8 8 16 8l10 -4q131 -57 179 -150l71 43q-51 100 -135 166q-25 20 -53 35l-23 12 q-14 8 -12 23q8 23 25 22h14q20 -3 40 -3q67 0 138 36l-29 64q-47 -21 -92 -21q-31 0 -61 10l-10 4l-4 11q-4 6 -5 22v6q-20 2 -49 19q-84 -45 -96 -189q-2 -39 -8 -45q-49 -106 -170 -139zM723 969q0 -39 27 -66q26 -26 62 -26h3q39 0 66 26q26 26 26 63q0 42 -26 68 q-27 27 -66 27q-38 0 -65 -27t-27 -65z" />
<glyph unicode="{" horiz-adv-x="1548" d="M104 854q0 -112 41 -180q41 -70 136 -109q31 31 34 62q2 33 -10 55q-14 23 -31 59q-16 35 -20 64q-10 94 37 186q47 90 129 144q82 55 186 67q102 12 207 -51q92 -55 119 -201q27 -145 -27 -280q-55 -135 -164 -158q-35 -6 -73 2q-39 8 -56 25q-39 35 -34 90q4 57 28 110 q25 53 39 117q12 66 -8 117q-20 47 -59 55q-37 10 -74 -8q-35 -18 -66 -55q-29 -39 -35 -82q-6 -35 7 -92q12 -57 12 -80q0 -70 -45 -224q-47 -154 -53 -198q-25 -125 -5 -203h84q66 106 127 375q8 6 15 0q8 -6 14 -19q6 -12 12 -14q86 -57 203 -39q117 16 189 78 q88 74 131 211q43 135 28 266q-14 141 -131 248q-115 109 -270 125q-158 18 -299 -35t-229 -166q-86 -113 -89 -262z" />
<glyph unicode="}" horiz-adv-x="1605" d="M152 302q0 51 26.5 98.5t72.5 85t108.5 60t134.5 22.5q17 0 31 1t30 1q-20 20 -33.5 45.5t-13.5 55.5q0 19 4.5 36.5t12.5 33.5q-8 -1 -15.5 -1h-16.5q-60 0 -109 21t-84 58t-54 85.5t-19 104.5q0 55 25.5 104t67.5 86.5t97 59.5t114 22h348l-77 -60h-111q27 -11 48 -33 t35.5 -50.5t21.5 -62t7 -68.5q0 -60 -27 -109t-71 -85q-21 -17 -34 -30t-20.5 -25t-10 -24t-2.5 -27q0 -12 10 -28.5t24 -32.5t29.5 -30.5t27.5 -23.5q34 -26 57.5 -52t38 -54.5t20.5 -61t6 -72.5q0 -51 -22.5 -99t-66 -85.5t-107.5 -60t-146 -22.5q-72 0 -137 15t-114 43 t-77.5 68.5t-28.5 90.5zM278 342q0 -41 17 -77t47.5 -63t73 -42.5t92.5 -15.5q70 0 118.5 15t78.5 40.5t43 60.5t13 76q0 20 -3 38q-6 23 -18 41t-30 34.5t-41 33t-50 36.5q-20 7 -42 11t-46 4q-50 0 -96 -15t-81 -41.5t-55.5 -61.5t-20.5 -74zM352 1009q6 -47 24.5 -88.5 t44.5 -73t57.5 -50t65.5 -19.5t61 15.5t45 46.5t25.5 71t1.5 88t-23.5 88.5t-43.5 72.5t-57.5 49t-65.5 19t-61.5 -15.5t-45.5 -46t-26 -70t-2 -87.5zM977 981v60h227v240h54v-240h226v-60h-226v-239h-54v239h-227z" />
<glyph unicode="&#xa0;" d="M96 729q0 297 211 508t510 211t508 -211q211 -209 211 -508t-211 -510q-209 -211 -508 -211t-510 211t-211 510z" />
<glyph unicode="&#xad;" d="M96 719q0 299 211 508q211 211 508 211q299 0 510 -211t211 -508q0 -299 -211 -510t-510 -211t-508 211q-211 211 -211 510zM502 825q-10 -20 14 -49l121 -145l-62 -176q-10 -35 5 -49q14 -12 47 4l188 94l189 -94q33 -16 49 -4q14 14 2 49l-60 176l121 145q23 29 14 49 q-10 18 -47 19h-155l-76 157q-14 35 -37 35q-20 0 -37 -35l-73 -157h-158q-37 0 -45 -19z" />
<glyph unicode="&#x2000;" horiz-adv-x="724" />
<glyph unicode="&#x2001;" horiz-adv-x="1448" />
<glyph unicode="&#x2002;" horiz-adv-x="724" />
<glyph unicode="&#x2003;" horiz-adv-x="1448" />
<glyph unicode="&#x2004;" horiz-adv-x="482" />
<glyph unicode="&#x2005;" horiz-adv-x="362" />
<glyph unicode="&#x2006;" horiz-adv-x="241" />
<glyph unicode="&#x2007;" horiz-adv-x="241" />
<glyph unicode="&#x2008;" horiz-adv-x="181" />
<glyph unicode="&#x2009;" horiz-adv-x="289" />
<glyph unicode="&#x200a;" horiz-adv-x="80" />
<glyph unicode="&#x2010;" d="M96 719q0 299 211 508q211 211 508 211q299 0 510 -211t211 -508q0 -299 -211 -510t-510 -211t-508 211q-211 211 -211 510zM502 825q-10 -20 14 -49l121 -145l-62 -176q-10 -35 5 -49q14 -12 47 4l188 94l189 -94q33 -16 49 -4q14 14 2 49l-60 176l121 145q23 29 14 49 q-10 18 -47 19h-155l-76 157q-14 35 -37 35q-20 0 -37 -35l-73 -157h-158q-37 0 -45 -19z" />
<glyph unicode="&#x2011;" d="M96 719q0 299 211 508q211 211 508 211q299 0 510 -211t211 -508q0 -299 -211 -510t-510 -211t-508 211q-211 211 -211 510zM502 825q-10 -20 14 -49l121 -145l-62 -176q-10 -35 5 -49q14 -12 47 4l188 94l189 -94q33 -16 49 -4q14 14 2 49l-60 176l121 145q23 29 14 49 q-10 18 -47 19h-155l-76 157q-14 35 -37 35q-20 0 -37 -35l-73 -157h-158q-37 0 -45 -19z" />
<glyph unicode="&#x2012;" d="M96 719q0 299 211 508q211 211 508 211q299 0 510 -211t211 -508q0 -299 -211 -510t-510 -211t-508 211q-211 211 -211 510zM502 825q-10 -20 14 -49l121 -145l-62 -176q-10 -35 5 -49q14 -12 47 4l188 94l189 -94q33 -16 49 -4q14 14 2 49l-60 176l121 145q23 29 14 49 q-10 18 -47 19h-155l-76 157q-14 35 -37 35q-20 0 -37 -35l-73 -157h-158q-37 0 -45 -19z" />
<glyph unicode="&#x2013;" horiz-adv-x="1214" d="M96 719q0 299 150 508q150 211 361 211q213 0 363 -211t150 -508q0 -299 -150 -510t-363 -211q-212 0 -361 211q-150 211 -150 510zM385 825q-7 -20 10 -49l86 -145l-44 -176q-7 -35 3 -49q10 -12 34 4l133 94l135 -94q23 -16 35 -4q9 14 1 49l-43 176l86 145 q17 29 10 49q-7 18 -33 19h-110l-54 157q-10 35 -27 35q-14 0 -26 -35l-52 -157h-112q-27 0 -32 -19z" />
<glyph unicode="&#x2014;" horiz-adv-x="2238" d="M96 719q0 299 300 508q300 211 723 211q425 0 725 -211t300 -508q0 -299 -300 -510t-725 -211q-426 0 -723 211q-300 211 -300 510zM673 825q-14 -20 20 -49l172 -145l-88 -176q-14 -35 7 -49q20 -12 67 4l268 94l268 -94q47 -16 70 -4q20 14 3 49l-85 176l172 145 q32 29 20 49q-15 18 -67 19h-221l-108 157q-20 35 -52 35q-29 0 -53 -35l-104 -157h-225q-52 0 -64 -19z" />
<glyph unicode="&#x202f;" horiz-adv-x="289" />
<glyph unicode="&#x205f;" horiz-adv-x="362" />
<glyph unicode="&#xe000;" horiz-adv-x="1440" d="M0 0v1440h1440v-1440h-1440z" />
</font>
</defs>
</svg>
